<?xml version="1.0" standalone="no"?>
<!DOCTYPE svg PUBLIC "-//W3C//DTD SVG 20010904//EN"
 "http://www.w3.org/TR/2001/REC-SVG-20010904/DTD/svg10.dtd">
<svg version="1.0" xmlns="http://www.w3.org/2000/svg"
 width="183.000000pt" height="183.000000pt" viewBox="0 0 183.000000 183.000000"
 preserveAspectRatio="xMidYMid meet">
<metadata>
Created by potrace 1.11, written by Peter Selinger 2001-2013
</metadata>
<g transform="translate(0.000000,183.000000) scale(0.100000,-0.100000)"
fill="#000000" stroke="none">
<path d="M567 1355 c-9 -8 -20 -29 -26 -47 -13 -39 -20 -458 -8 -458 5 0 5 -5
1 -11 -6 -10 -6 -34 -5 -176 1 -68 34 -108 87 -105 35 3 135 48 142 65 2 4 8
7 13 7 5 0 32 15 61 34 29 18 63 36 76 40 12 4 22 12 22 17 0 5 4 9 8 9 10 0
155 82 177 100 8 7 15 9 15 4 0 -5 4 -4 8 2 4 6 27 21 52 35 66 35 74 46 73
103 -1 33 -29 63 -93 98 -25 14 -62 35 -82 47 -42 23 -93 52 -129 73 -13 7
-26 16 -29 19 -6 7 -43 21 -49 19 -2 -1 -8 5 -13 14 -5 9 -13 14 -17 11 -5 -2
-14 2 -21 10 -7 8 -19 15 -26 15 -8 0 -14 5 -14 11 0 5 -4 8 -9 5 -5 -4 -11
-2 -13 3 -6 16 -127 71 -157 71 -16 0 -36 -7 -44 -15z"/>
<path d="M27 1149 c-16 -12 -18 -20 -10 -34 7 -11 7 -30 2 -48 -5 -16 -5 -37
0 -45 5 -8 6 -27 2 -41 -5 -21 -6 -205 -2 -269 1 -10 13 -13 46 -9 25 2 45 1
45 -4 0 -4 12 -4 28 0 27 7 27 9 25 84 l-1 76 38 -1 c21 0 43 3 49 6 6 4 11 3
11 -1 0 -5 15 -7 34 -5 l33 4 0 -71 c0 -82 11 -103 51 -92 15 5 37 5 49 0 18
-6 27 -3 43 18 11 15 17 29 12 32 -4 3 -7 92 -7 196 1 108 -2 195 -8 203 -11
14 -100 16 -125 3 -14 -8 -17 -24 -15 -108 2 -118 0 -128 -26 -113 -13 7 -22
7 -26 0 -6 -9 -63 -5 -74 5 -2 2 -11 0 -20 -5 -16 -8 -17 1 -16 96 2 117 -10
153 -46 134 -10 -6 -19 -7 -19 -3 0 14 -53 8 -73 -8z"/>
<path d="M1415 1162 c-3 -4 -21 -5 -40 -4 -18 2 -36 -1 -39 -7 -12 -19 -9
-351 3 -365 7 -9 23 -12 42 -9 27 4 29 2 27 -25 -3 -35 16 -61 40 -57 9 2 17
4 17 5 0 5 196 2 201 -3 11 -10 41 11 47 33 3 11 1 23 -4 26 -20 12 -7 23 34
26 l42 3 0 160 c1 88 4 165 8 171 12 20 -26 42 -79 46 -60 5 -74 -6 -70 -56 1
-20 0 -36 -4 -36 -8 0 -4 -116 4 -129 4 -5 2 -12 -4 -16 -6 -3 -7 -20 -4 -38
4 -18 6 -43 5 -57 0 -14 -1 -32 -2 -40 0 -13 -17 -16 -83 -17 l-82 -2 1 53 c1
28 5 57 9 64 4 7 3 12 -2 12 -6 0 -9 49 -7 119 1 65 -1 124 -5 130 -8 14 -45
22 -55 13z"/>
</g>
</svg>
