<svg id="Group_5708" data-name="Group 5708" xmlns="http://www.w3.org/2000/svg" viewBox="0 0 221.755 41.103">
  <defs>
    <style>
      .cls-1 {
        fill: #1a1a1a;
      }

      .cls-2 {
        fill: #93d500;
      }

      .cls-3 {
        fill: #fff;
      }
    </style>
  </defs>
  <g id="Group_5687" data-name="Group 5687" transform="translate(52.614 0.237)">
    <path id="Path_5300" data-name="Path 5300" class="cls-1" d="M200.62,52.185h13.167a4.586,4.586,0,0,0,2.549-.552,1.988,1.988,0,0,0,.788-1.761,1.944,1.944,0,0,0-.815-1.761,4.646,4.646,0,0,0-2.549-.552h-5.387c-3.206,0-5.361-.5-6.491-1.472s-1.682-2.707-1.682-5.2c0-2.549.683-4.415,2.024-5.6,1.367-1.209,3.469-1.787,6.307-1.787h13.4v4.914H210.922a8.144,8.144,0,0,0-3.5.473,1.754,1.754,0,0,0-.815,1.682,1.833,1.833,0,0,0,.71,1.6,3.886,3.886,0,0,0,2.234.526h5.65a8.652,8.652,0,0,1,5.913,1.813,6.587,6.587,0,0,1,2.024,5.23,7.769,7.769,0,0,1-1.813,5.335,5.93,5.93,0,0,1-4.652,2.05h-16.11V52.185Z" transform="translate(-200.2 -24.933)"/>
    <path id="Path_5301" data-name="Path 5301" class="cls-1" d="M311.305,57.026c-3.916,0-6.859-1-8.883-3-2-2-3.022-4.941-3.022-8.8,0-3.89,1-6.833,3.022-8.83s4.967-3,8.857-3H320.4v4.914h-8.252c-2.26,0-3.784.315-4.573.972a4.471,4.471,0,0,0-1.261,3.469H320.4V47.67H306.312a4.621,4.621,0,0,0,1.183,3.469c.71.631,2.26.92,4.6.92h8.3v4.914h-9.093Z" transform="translate(-273.33 -24.859)"/>
    <path id="Path_5302" data-name="Path 5302" class="cls-1" d="M394.5,33.4h11.721c3.548,0,6.071.657,7.6,2s2.286,3.548,2.286,6.649v14.98h-6.228V42.835c0-1.761-.263-2.917-.815-3.443s-1.656-.788-3.285-.788h-5.02V57.026h-6.229V33.4Z" transform="translate(-343.437 -24.859)"/>
    <path id="Path_5303" data-name="Path 5303" class="cls-1" d="M494.294,52.185h13.167a4.586,4.586,0,0,0,2.549-.552,1.988,1.988,0,0,0,.788-1.761,1.944,1.944,0,0,0-.815-1.761,4.646,4.646,0,0,0-2.549-.552h-5.361c-3.206,0-5.361-.5-6.491-1.472s-1.682-2.707-1.682-5.2c0-2.549.683-4.415,2.024-5.6,1.367-1.209,3.469-1.787,6.307-1.787h13.4v4.914H504.622a8.144,8.144,0,0,0-3.5.473,1.754,1.754,0,0,0-.815,1.682,1.833,1.833,0,0,0,.709,1.6,3.829,3.829,0,0,0,2.234.526h5.65a8.652,8.652,0,0,1,5.913,1.813,6.587,6.587,0,0,1,2.024,5.23,7.769,7.769,0,0,1-1.813,5.335,5.93,5.93,0,0,1-4.652,2.05h-16.11V52.185Z" transform="translate(-416.714 -24.933)"/>
    <path id="Path_5304" data-name="Path 5304" class="cls-1" d="M604.744,57.026H598.2V33.4h6.544Z" transform="translate(-493.604 -24.859)"/>
    <path id="Path_5305" data-name="Path 5305" class="cls-1" d="M639.194,14.145H634.7v-4.7h4.494V7.023c0-2.418.447-4.021,1.34-4.862S643.136.9,645.659.9h5.913V5.447h-2.943a3.928,3.928,0,0,0-2.286.5,1.838,1.838,0,0,0-.683,1.629V9.467h5.913v4.7h-5.913V33.094h-6.465Z" transform="translate(-520.511 -0.9)"/>
    <path id="Path_5306" data-name="Path 5306" class="cls-2" d="M707.951,33.4h12.8c3.232,0,5.65.736,7.28,2.234,1.629,1.472,2.444,3.679,2.444,6.6v14.8H713.706a7.632,7.632,0,0,1-5.414-1.761A6.58,6.58,0,0,1,706.4,50.22c0-2.681.736-4.6,2.181-5.782,1.445-1.156,3.863-1.761,7.227-1.761h8.2V42.1a3.324,3.324,0,0,0-1.235-2.943c-.815-.578-2.286-.867-4.389-.867H707.977V33.4Zm8.3,18.869h7.805V47.408H716.7a5.772,5.772,0,0,0-3.022.578,2.354,2.354,0,0,0-.841,2.05,1.981,1.981,0,0,0,.657,1.735A5.141,5.141,0,0,0,716.255,52.269Z" transform="translate(-573.368 -24.859)"/>
    <path id="Path_5307" data-name="Path 5307" class="cls-2" d="M825.344,57.026H818.8V33.4h6.544Z" transform="translate(-656.229 -24.859)"/>
  </g>
  <g id="Group_5707" data-name="Group 5707" transform="translate(0)">
    <path id="Path_5308" data-name="Path 5308" class="cls-2" d="M51.919,36.859A14.558,14.558,0,0,1,37.359,51.419h0A14.558,14.558,0,0,1,22.8,36.859h0A14.558,14.558,0,0,1,37.359,22.3h0A14.541,14.541,0,0,1,51.919,36.859Z" transform="translate(-16.808 -16.439)"/>
    <g id="Group_5688" data-name="Group 5688" transform="translate(14.98 12.036)">
      <path id="Path_5309" data-name="Path 5309" class="cls-3" d="M58.945,46.772a.97.97,0,0,1-.972.972A.954.954,0,0,1,57,46.772a.97.97,0,0,1,.972-.972A.954.954,0,0,1,58.945,46.772Z" transform="translate(-57 -45.8)"/>
    </g>
    <g id="Group_5689" data-name="Group 5689" transform="translate(14.98 17.135)">
      <path id="Path_5310" data-name="Path 5310" class="cls-3" d="M58.945,66.172a.97.97,0,0,1-.972.972A.954.954,0,0,1,57,66.172a.972.972,0,0,1,1.945,0Z" transform="translate(-57 -65.2)"/>
    </g>
    <g id="Group_5690" data-name="Group 5690" transform="translate(14.98 22.26)">
      <path id="Path_5311" data-name="Path 5311" class="cls-3" d="M58.945,85.672a.97.97,0,0,1-.972.972A.954.954,0,0,1,57,85.672a.972.972,0,1,1,1.945,0Z" transform="translate(-57 -84.7)"/>
    </g>
    <g id="Group_5691" data-name="Group 5691" transform="translate(19.421 24.783)">
      <path id="Path_5312" data-name="Path 5312" class="cls-3" d="M75.845,95.272a.972.972,0,1,1-.972-.972A.97.97,0,0,1,75.845,95.272Z" transform="translate(-73.9 -94.3)"/>
    </g>
    <g id="Group_5692" data-name="Group 5692" transform="translate(23.889 22.181)">
      <path id="Path_5313" data-name="Path 5313" class="cls-3" d="M92.845,85.372a.972.972,0,1,1-.972-.972A1.006,1.006,0,0,1,92.845,85.372Z" transform="translate(-90.9 -84.4)"/>
    </g>
    <g id="Group_5693" data-name="Group 5693" transform="translate(14.98 27.305)">
      <path id="Path_5314" data-name="Path 5314" class="cls-3" d="M58.945,104.872a.97.97,0,0,1-.972.972.954.954,0,0,1-.972-.972.972.972,0,0,1,1.945,0Z" transform="translate(-57 -103.9)"/>
    </g>
    <g id="Group_5694" data-name="Group 5694" transform="translate(19.451 14.616)">
      <path id="Path_5315" data-name="Path 5315" class="cls-3" d="M75.456,55.742a.96.96,0,1,1-1.314.342A.976.976,0,0,1,75.456,55.742Z" transform="translate(-74.015 -55.615)"/>
    </g>
    <g id="Group_5695" data-name="Group 5695" transform="translate(23.84 17.107)">
      <path id="Path_5316" data-name="Path 5316" class="cls-3" d="M92.156,65.226a.96.96,0,1,1-1.314.342A.958.958,0,0,1,92.156,65.226Z" transform="translate(-90.715 -65.092)"/>
    </g>
    <g id="Group_5696" data-name="Group 5696" transform="translate(19.399 19.697)">
      <path id="Path_5317" data-name="Path 5317" class="cls-3" d="M75.256,75.093a.96.96,0,1,1-1.314.342A.931.931,0,0,1,75.256,75.093Z" transform="translate(-73.815 -74.948)"/>
    </g>
    <g id="Group_5697" data-name="Group 5697" transform="translate(28.255 19.688)">
      <path id="Path_5318" data-name="Path 5318" class="cls-3" d="M108.956,75.042a.96.96,0,1,1-1.314.342A.976.976,0,0,1,108.956,75.042Z" transform="translate(-107.515 -74.915)"/>
    </g>
    <g id="Group_5698" data-name="Group 5698" transform="translate(15.863 17.959)">
      <rect id="Rectangle_54" data-name="Rectangle 54" class="cls-3" width="0.394" height="4.179" transform="translate(0 0.341) rotate(-59.861)"/>
    </g>
    <g id="Group_5699" data-name="Group 5699" transform="translate(16.602 20.973)">
      <rect id="Rectangle_55" data-name="Rectangle 55" class="cls-3" width="3.259" height="0.394" transform="matrix(0.863, -0.505, 0.505, 0.863, 0, 1.646)"/>
    </g>
    <g id="Group_5700" data-name="Group 5700" transform="translate(20.84 20.814)">
      <path id="Path_5319" data-name="Path 5319" class="cls-3" d="M83.163,81.749,79.3,79.542l.21-.342,3.837,2.208Z" transform="translate(-79.3 -79.2)"/>
    </g>
    <g id="Group_5701" data-name="Group 5701" transform="translate(21.045 18.114)">
      <rect id="Rectangle_56" data-name="Rectangle 56" class="cls-3" width="3.732" height="0.394" transform="matrix(0.865, -0.502, 0.502, 0.865, 0, 1.873)"/>
    </g>
    <g id="Group_5702" data-name="Group 5702" transform="translate(16.402 15.765)">
      <rect id="Rectangle_57" data-name="Rectangle 57" class="cls-3" width="4.047" height="0.394" transform="translate(0 1.996) rotate(-29.552)"/>
    </g>
    <g id="Group_5703" data-name="Group 5703" transform="translate(16.633 23.491)">
      <rect id="Rectangle_58" data-name="Rectangle 58" class="cls-3" width="0.394" height="3.338" transform="translate(0 0.343) rotate(-60.448)"/>
    </g>
    <rect id="Rectangle_59" data-name="Rectangle 59" class="cls-3" width="0.368" height="8.699" transform="translate(15.742 13.64)"/>
    <g id="Group_5704" data-name="Group 5704" transform="translate(16.425 13.14)">
      <path id="Path_5320" data-name="Path 5320" class="cls-3" d="M70.516,54.468,62.658,50l-.158.342,8.016,4.6Z" transform="translate(-62.5 -50)"/>
      <path id="Path_5321" data-name="Path 5321" class="cls-3" d="M95.7,68.9v.447l3.627,2.024v-.447Z" transform="translate(-86.975 -63.933)"/>
    </g>
    <g id="Group_5705" data-name="Group 5705" transform="translate(15.742 20.683)">
      <path id="Path_5322" data-name="Path 5322" class="cls-3" d="M64.236,93.245l-3.968,2.339V91.8H59.9v4.468l4.336-2.575Z" transform="translate(-59.9 -88.357)"/>
      <path id="Path_5323" data-name="Path 5323" class="cls-3" d="M78.5,83.3v.447l8.147-4.6V78.7Z" transform="translate(-73.612 -78.7)"/>
    </g>
    <path id="Path_5324" data-name="Path 5324" class="cls-2" d="M6.675,31.326a17.431,17.431,0,0,1-3.6-10.7v-.105A17.576,17.576,0,0,1,19,3.022V0A20.668,20.668,0,0,0,0,20.525v.105A20.546,20.546,0,0,0,4.52,33.481Z" transform="translate(0)"/>
    <g id="Group_5706" data-name="Group 5706" transform="translate(6.544)">
      <path id="Path_5325" data-name="Path 5325" class="cls-2" d="M51.1,127a17.525,17.525,0,0,1-12.089,4.862h-.105a17.475,17.475,0,0,1-11.879-4.678L24.9,129.26a20.472,20.472,0,0,0,14.008,5.466h.105A20.382,20.382,0,0,0,53.23,129.05Z" transform="translate(-24.9 -93.624)"/>
      <path id="Path_5326" data-name="Path 5326" class="cls-2" d="M84,0V3.022a17.536,17.536,0,0,1,16.11,17.5v.105a17.416,17.416,0,0,1-3.469,10.46l2.181,2.155a20.543,20.543,0,0,0,4.363-12.615v-.105A20.614,20.614,0,0,0,84,0Z" transform="translate(-68.468)"/>
    </g>
  </g>
  <path id="Path_5327" data-name="Path 5327" class="cls-2" d="M825.223,4.311A3.311,3.311,0,1,1,821.911,1,3.314,3.314,0,0,1,825.223,4.311Z" transform="translate(-603.468 -0.737)"/>
  <path id="Path_5328" data-name="Path 5328" class="cls-1" d="M604.623,4.411A3.311,3.311,0,1,1,601.311,1.1,3.314,3.314,0,0,1,604.623,4.411Z" transform="translate(-440.843 -0.811)"/>
</svg>
