<?xml version="1.0" encoding="utf-8"?>
<!-- Generator: Adobe Illustrator 22.0.0, SVG Export Plug-In . SVG Version: 6.00 Build 0)  -->
<svg version="1.1" id="Ebene_1" xmlns="http://www.w3.org/2000/svg" xmlns:xlink="http://www.w3.org/1999/xlink" x="0px" y="0px"
	 viewBox="0 0 756.9 244.1" style="enable-background:new 0 0 756.9 244.1;" xml:space="preserve">
<style type="text/css">
	.st0{fill-rule:evenodd;clip-rule:evenodd;}
	.st1{fill-rule:evenodd;clip-rule:evenodd;fill:#009781;}
	.st2{fill:none;stroke:#9B9B9B;stroke-width:7.1253;}
</style>
<g>
	<path class="st0" d="M331.9,190.8h-57.5l-68.3-73.3v-42l66.2-73.2h59.2l-76.3,94.8L331.9,190.8L331.9,190.8L331.9,190.8z
		 M392.3,190.8h-51.7V2.5h51.7V190.8L392.3,190.8L392.3,190.8z M529.1,2.5H404.7v42.4H441V191h51.7V44.9h36.4V2.5L529.1,2.5
		L529.1,2.5z"/>
	<polygon class="st0" points="193.7,190.8 193.7,190.8 193.7,190.8 193.7,190.8 193.7,190.8 	"/>
	<polygon class="st0" points="193.7,190.8 193.7,190.8 193.7,190.8 193.7,190.8 193.7,190.8 	"/>
	<path class="st1" d="M46.4,71.4c-9.9,12-18.4,25.2-25,39.3l172.2,80.1L46.4,71.4L46.4,71.4L46.4,71.4z"/>
	<path class="st1" d="M193.7,190.8L113.4,19.9c-14.3,6.6-27.5,14.7-39.5,24.4L193.7,190.8L193.7,190.8L193.7,190.8L193.7,190.8z"/>
	<path class="st0" d="M193.7,190.8l0.2-188.3c-0.6,0-1,0-1.5,0c-15.3,0-30.2,1.9-44.5,5.4L193.7,190.8L193.7,190.8L193.7,190.8
		L193.7,190.8z"/>
	<polygon class="st0" points="193.7,190.8 193.7,190.8 193.7,190.8 193.7,190.8 193.7,190.8 193.7,190.8 	"/>
	<polygon class="st0" points="193.7,190.8 193.7,190.8 193.7,190.8 193.7,190.8 193.7,190.8 193.7,190.8 	"/>
	<path class="st1" d="M9.1,144.7c-3.9,14.7-5.8,30.2-6,46.1h190.6L9.1,144.7L9.1,144.7L9.1,144.7z"/>
	<polygon points="3,234.5 6.4,234.5 6.4,222.7 17.1,234.5 22.2,234.5 10,221.8 21.3,210.4 16.7,210.4 6.4,221 6.4,210.4 3,210.4 
		3,234.5 3,234.5 	"/>
	<path d="M35.9,227.6c0,2.6-1.7,4.6-4.9,4.6c-1.5,0-3.3-1-3.3-2.9c0-3.1,4.3-3.4,6.1-3.4c0.7,0,1.4,0.1,2.1,0.1V227.6L35.9,227.6
		L35.9,227.6z M26.5,220.9c1.3-1.1,3.3-1.8,5.1-1.8c3.2,0,4.3,1.5,4.3,4.6c-1.3-0.1-2.2-0.1-3.4-0.1c-3.3,0-8.2,1.4-8.2,5.8
		c0,3.8,2.6,5.5,6.4,5.5c3,0,4.7-1.6,5.4-2.7h0.1v2.3h3c-0.1-0.5-0.1-1.4-0.1-3.4v-7.3c0-4.8-2-7.3-7.1-7.3c-2.2,0-4.2,0.7-5.8,1.6
		L26.5,220.9L26.5,220.9L26.5,220.9z"/>
	<path d="M44.6,234.5h3.2v-8c0-4.4,1.9-7.2,4.8-7.2c0.6,0,1.2,0.1,1.8,0.3v-2.9c-0.7-0.1-1.2-0.2-2.1-0.2c-1.9,0-3.7,1.3-4.6,3.1
		h-0.1v-2.7h-3V234.5L44.6,234.5L44.6,234.5z"/>
	<polygon points="58.4,234.5 61.6,234.5 61.6,208.6 58.4,208.6 58.4,234.5 58.4,234.5 	"/>
	<path d="M66.1,233.9c1.5,0.8,3.2,1,4.8,1c3.1,0,6.1-1.7,6.1-5.5c0-5.6-7.6-4.6-7.6-8.2c0-1.4,1.4-2.1,3.1-2.1
		c0.8,0,2.7,0.4,3.4,0.9l0.3-2.8c-1.3-0.4-2.5-0.7-4-0.7c-3.5,0-6.2,1.8-6.2,5.4c0,4.9,7.6,4.6,7.6,7.8c0,1.9-1.8,2.5-3.3,2.5
		c-0.9,0-2.8-0.4-4-1.2L66.1,233.9L66.1,233.9L66.1,233.9z"/>
	<path d="M80.9,234.5h3.2v-8c0-4.4,1.9-7.2,4.8-7.2c0.6,0,1.2,0.1,1.8,0.3v-2.9c-0.7-0.1-1.2-0.2-2.1-0.2c-1.9,0-3.7,1.3-4.6,3.1H84
		v-2.7h-3V234.5L80.9,234.5L80.9,234.5z"/>
	<path d="M109.8,216.9h-3.2v8.1c0,4.3-1.7,7.2-5.3,7.2c-2.8-0.2-3.7-2.2-3.7-6.3v-9.1h-3.2v10.4c0,4.7,2,7.5,6.6,7.5
		c2.4,0,4.8-1.2,5.7-3.2h0.1v2.8h3.1V216.9L109.8,216.9L109.8,216.9z"/>
	<path d="M115.4,234.5h3.2v-8.1c0-4.3,1.7-7.2,5.3-7.2c2.8,0.2,3.7,2.2,3.7,6.3v9.1h3.2V224c0-4.7-2-7.5-6.6-7.5
		c-2.4,0-4.5,1.1-5.6,2.9h-0.1v-10.8h-3.2V234.5L115.4,234.5L115.4,234.5z"/>
	<path d="M138.6,224c0.2-2.3,1.5-4.9,4.7-4.9c2.8,0,4.4,2.2,4.4,4.9H138.6L138.6,224L138.6,224z M149.8,230.5
		c-0.8,0.7-3.3,1.8-5.4,1.8c-3.1,0-5.8-2.4-5.8-5.9h12.5c0-5.6-1.9-9.9-7.7-9.9c-5,0-8.2,3.7-8.2,8.9c0,5.7,2.9,9.5,9.1,9.5
		c2.9,0,4.3-0.7,5.5-1.1V230.5L149.8,230.5L149.8,230.5z"/>
	<polygon points="165.4,234.5 168.8,234.5 168.8,210.4 165.4,210.4 165.4,234.5 165.4,234.5 	"/>
	<path d="M174.6,234.5h3.2v-8.1c0-4.3,1.7-7.2,5.3-7.2c2.8,0.2,3.7,2.2,3.7,6.3v9.1h3.2V224c0-4.7-2-7.5-6.6-7.5
		c-2.4,0-4.8,1.2-5.7,3.2h-0.1v-2.8h-3.1V234.5L174.6,234.5L174.6,234.5z"/>
	<path d="M194.2,233.9c1.5,0.8,3.2,1,4.8,1c3.1,0,6.1-1.7,6.1-5.5c0-5.6-7.6-4.6-7.6-8.2c0-1.4,1.4-2.1,3.1-2.1
		c0.8,0,2.7,0.4,3.4,0.9l0.3-2.8c-1.3-0.4-2.5-0.7-4-0.7c-3.5,0-6.2,1.8-6.2,5.4c0,4.9,7.6,4.6,7.6,7.8c0,1.9-1.8,2.5-3.3,2.5
		c-0.9,0-2.8-0.4-4-1.2L194.2,233.9L194.2,233.9L194.2,233.9z"/>
	<path d="M218.4,216.9h-4.6v-5.1l-3.2,1v4.1h-4v2.6h4v10.3c0,3.5,2.1,5.1,5.4,5.1c1,0,2-0.3,2.8-0.5v-2.8c-0.5,0.3-1.2,0.6-2.2,0.6
		c-1.5,0-2.7-1.1-2.7-3.1v-9.6h4.6V216.9L218.4,216.9L218.4,216.9z"/>
	<path d="M226.3,209.3h-3.6v3.6h3.6V209.3L226.3,209.3L226.3,209.3z M222.8,234.5h3.2v-17.6h-3.2V234.5L222.8,234.5L222.8,234.5z"/>
	<path d="M241.3,216.9h-4.6v-5.1l-3.2,1v4.1h-4v2.6h4v10.3c0,3.5,2.1,5.1,5.4,5.1c1,0,2-0.3,2.8-0.5v-2.8c-0.5,0.3-1.2,0.6-2.2,0.6
		c-1.5,0-2.7-1.1-2.7-3.1v-9.6h4.6V216.9L241.3,216.9L241.3,216.9z"/>
	<path d="M260.9,216.9h-3.2v8.1c0,4.3-1.7,7.2-5.3,7.2c-2.8-0.2-3.7-2.2-3.7-6.3v-9.1h-3.2v10.4c0,4.7,2,7.5,6.6,7.5
		c2.4,0,4.8-1.2,5.7-3.2h0.1v2.8h3.1V216.9L260.9,216.9L260.9,216.9z"/>
	<path d="M275.7,216.9h-4.6v-5.1l-3.2,1v4.1h-4v2.6h4v10.3c0,3.5,2.1,5.1,5.4,5.1c1,0,2-0.3,2.7-0.5v-2.8c-0.5,0.3-1.2,0.6-2.2,0.6
		c-1.5,0-2.7-1.1-2.7-3.1v-9.6h4.6V216.9L275.7,216.9L275.7,216.9z"/>
	<path d="M282.1,224c0.2-2.3,1.5-4.9,4.7-4.9c2.8,0,4.4,2.2,4.4,4.9H282.1L282.1,224L282.1,224z M293.3,230.5
		c-0.8,0.7-3.3,1.8-5.4,1.8c-3.1,0-5.8-2.4-5.8-5.9h12.5c0-5.6-1.9-9.9-7.7-9.9c-5,0-8.2,3.7-8.2,8.9c0,5.7,2.9,9.5,9.1,9.5
		c2.9,0,4.3-0.7,5.5-1.1V230.5L293.3,230.5L293.3,230.5z"/>
	<path d="M310.8,225.7c0-3.3,2-6.6,5.5-6.6c3.4,0,5.5,3.2,5.5,6.6c0,3.1-1.7,6.6-5.5,6.6C312.5,232.3,310.8,228.8,310.8,225.7
		L310.8,225.7L310.8,225.7z M307.3,225.7c0,5,3.6,9.2,8.9,9.2c5.3,0,8.9-4.2,8.9-9.2c0-5.3-3.6-9.2-8.9-9.2
		C310.9,216.5,307.3,220.3,307.3,225.7L307.3,225.7L307.3,225.7z"/>
	<path d="M331.6,234.5h3.2v-14.9h4.6v-2.6h-4.6V215c0-2.4,0.3-4.2,3.1-4.2c0.6,0,1.2,0.1,1.5,0.2l0.1-2.6c-0.7-0.1-1.3-0.2-2.2-0.2
		c-4.8,0-5.9,2.8-5.9,7.1v1.6h-4.1v2.6h4.1V234.5L331.6,234.5L331.6,234.5z"/>
	<polygon points="357.6,234.5 361,234.5 361,213.5 368.5,213.5 368.5,210.4 350.1,210.4 350.1,213.5 357.6,213.5 357.6,234.5 
		357.6,234.5 	"/>
	<path d="M371.3,224c0.2-2.3,1.5-4.9,4.7-4.9c2.8,0,4.4,2.2,4.4,4.9H371.3L371.3,224L371.3,224z M382.5,230.5
		c-0.8,0.7-3.3,1.8-5.4,1.8c-3.1,0-5.8-2.4-5.8-5.9h12.5c0-5.6-1.9-9.9-7.7-9.9c-5,0-8.2,3.7-8.2,8.9c0,5.7,2.9,9.5,9.1,9.5
		c2.9,0,4.3-0.7,5.5-1.1V230.5L382.5,230.5L382.5,230.5z"/>
	<path d="M399.6,217.2c-0.9-0.4-2.6-0.7-3.9-0.7c-5.4,0-8.9,3.9-8.9,9.2c0,5,3.6,9.2,8.9,9.2c1.2,0,2.7-0.1,4.1-0.7l-0.2-2.9
		c-1,0.7-2.4,1-3.5,1c-4.2,0-5.9-3.4-5.9-6.6c0-3.3,2-6.6,5.6-6.6c1,0,2.3,0.2,3.5,0.8L399.6,217.2L399.6,217.2L399.6,217.2z"/>
	<path d="M403.5,234.5h3.2v-8.1c0-4.3,1.7-7.2,5.3-7.2c2.8,0.2,3.7,2.2,3.7,6.3v9.1h3.2V224c0-4.7-2-7.5-6.6-7.5
		c-2.4,0-4.5,1.1-5.6,2.9h-0.1v-10.8h-3.2V234.5L403.5,234.5L403.5,234.5z"/>
	<path d="M424.5,234.5h3.2v-8.1c0-4.3,1.7-7.2,5.3-7.2c2.8,0.2,3.7,2.2,3.7,6.3v9.1h3.2V224c0-4.7-2-7.5-6.6-7.5
		c-2.4,0-4.8,1.2-5.7,3.2h-0.1v-2.8h-3.1V234.5L424.5,234.5L424.5,234.5z"/>
	<path d="M447.8,225.7c0-3.3,2-6.6,5.5-6.6c3.4,0,5.5,3.2,5.5,6.6c0,3.1-1.7,6.6-5.5,6.6C449.5,232.3,447.8,228.8,447.8,225.7
		L447.8,225.7L447.8,225.7z M444.3,225.7c0,5,3.6,9.2,8.9,9.2c5.3,0,8.9-4.2,8.9-9.2c0-5.3-3.6-9.2-8.9-9.2
		C447.9,216.5,444.3,220.3,444.3,225.7L444.3,225.7L444.3,225.7z"/>
	<polygon points="467,234.5 470.2,234.5 470.2,208.6 467,208.6 467,234.5 467,234.5 	"/>
	<path d="M478.4,225.7c0-3.3,2-6.6,5.5-6.6c3.4,0,5.5,3.2,5.5,6.6c0,3.1-1.7,6.6-5.5,6.6C480.1,232.3,478.4,228.8,478.4,225.7
		L478.4,225.7L478.4,225.7z M474.9,225.7c0,5,3.6,9.2,8.9,9.2c5.3,0,8.9-4.2,8.9-9.2c0-5.3-3.6-9.2-8.9-9.2
		C478.5,216.5,474.9,220.3,474.9,225.7L474.9,225.7L474.9,225.7z"/>
	<path d="M504.3,231.8c-3,0-4.9-2.9-4.9-6.2c0-3,1.6-6.5,4.9-6.5c3.4,0,5.1,3.1,5.1,6.8C509.4,229.2,507.3,231.8,504.3,231.8
		L504.3,231.8L504.3,231.8z M512.7,216.9h-3v2.6h-0.1c-1-1.9-2.7-3-5.8-3c-5.3,0-7.8,4.8-7.8,9.3c0,4.5,2.5,8.6,7.5,8.6
		c2.2,0,4.5-0.9,5.9-2.7h0.1v1.7c0,3.7-2,6-5.4,6c-2.4,0-3.9-0.4-6.3-1.6l-0.3,3c2.8,1,4.4,1.2,6.3,1.2c6.3,0,9.1-3.1,9.1-8.4V216.9
		L512.7,216.9L512.7,216.9z"/>
	<path d="M516.6,241.9c0.6,0.1,1.2,0.2,2.2,0.2c4.3,0,5.5-3.9,6.7-7.3l6.5-17.9h-3.3l-4.8,14.5h-0.1l-4.7-14.5h-3.5l6,16.4
		c0.2,0.6,0.6,1.5,0.6,1.9c0,0.3-1,4.3-3.9,4.3c-0.6,0-1.1-0.1-1.5-0.3L516.6,241.9L516.6,241.9L516.6,241.9z"/>
	<line class="st2" x1="570.7" y1="2.3" x2="570.7" y2="237.1"/>
	<g>
		<path d="M625.4,35.5l-7.5,5.4l-4.7-7.2l13.5-8.8h9.3v39.8h-10.6V35.5z"/>
		<path d="M656.9,44.2c-3.7-1.3-6.8-4.6-6.8-8.5c0-8.5,7.1-11.5,14.9-11.5c7.9,0,13.7,3.2,13.7,10.2c0,4.9-3.1,7.8-6.6,9.1v0.1
			c4.3,1.4,8,3.8,8,9.8c0,8.6-7.3,11.9-15.6,11.9c-8.6,0-15.5-3.2-15.5-11.3C649,48.2,652.6,45.5,656.9,44.2L656.9,44.2z
			 M664.4,58.2c3,0,5.5-1.9,5.5-5.1c0-3.5-3.3-5-6-5.8c-2.6,1.2-4.6,2.9-4.6,5.9C659.3,56.1,661.6,58.2,664.4,58.2z M664.6,41
			c2.8-1.6,4.5-3,4.5-5.7c0-2.9-2.5-4.2-4.8-4.2c-2.6,0-4.7,1.9-4.7,4.7C659.6,38.8,662.1,39.9,664.6,41z"/>
		<path d="M687.3,57.1c8.1-7,17.4-14.7,17.4-20c0-3.5-2.5-5-5.6-5c-3.4,0-8,1.3-10.4,2.7l-0.4-8.3c5.7-2.1,9.5-2.3,11.8-2.3
			c8.9,0,15.3,3.8,15.3,11.7c0,7.8-8.4,15.6-12.1,18.8l-2.8,2.5h15.7v7.5h-28.8V57.1z"/>
		<path d="M727.2,24.9h25.9v7.2h-16.8v6.6c1.5-0.1,2.5-0.2,3.1-0.2c8.1,0,15.2,3.5,15.2,12.3c0,11.1-8.6,14.6-17.5,14.6
			c-3.9,0-7.4-0.6-10.7-1.4l0.2-8.6c3,1.5,6.3,2.2,9.7,2.2c3.9,0,8-1.3,8-6.4c0-4.4-4.6-5.8-8.8-5.8c-2.9,0-5.8,0.2-8.7,1
			L727.2,24.9z"/>
	</g>
	<g>
		<path d="M625.4,110.4l-7.5,5.4l-4.7-7.2l13.5-8.8h9.3v39.8h-10.6V110.4z"/>
		<path d="M652.5,130.6c1.7,1.1,4.5,2.1,8.4,2.1c7.1,0,9.2-4.7,9.3-11.7H670c-1.9,2.7-4.6,4-8.6,4c-7.3,0-11.9-5.4-11.9-12.5
			c0-7.4,6.2-13.5,14.9-13.5c11.3,0,15.3,8.9,15.3,18.9c0,12.2-4.4,22.3-17.6,22.3c-4,0-7.3-0.6-10.3-1.8L652.5,130.6z M664.5,105.9
			c-3.3,0-5.1,2.6-5.1,5.6c0,3.3,1.4,6.3,5.1,6.3c3.5,0,5.2-2.8,5.2-5.9C669.7,108.8,667.9,105.9,664.5,105.9z"/>
		<path d="M689.5,99.8h25.9v7.2h-16.8v6.6c1.5-0.1,2.5-0.2,3.1-0.2c8.1,0,15.2,3.5,15.2,12.3c0,11.1-8.6,14.6-17.5,14.6
			c-3.9,0-7.4-0.6-10.7-1.4l0.2-8.6c3,1.5,6.3,2.2,9.7,2.2c3.9,0,8-1.3,8-6.4c0-4.4-4.6-5.8-8.8-5.8c-2.9,0-5.8,0.2-8.7,1
			L689.5,99.8z"/>
		<path d="M752.2,108.7c-1.7-1.1-4.5-2.1-8.4-2.1c-7.1,0-9.2,4.7-9.3,11.7h0.1c1.9-2.7,4.6-4,8.6-4c7.3,0,11.9,5.4,11.9,12.5
			c0,7.4-6.2,13.5-14.9,13.5c-11.3,0-15.3-8.9-15.3-18.9c0-12.2,4.4-22.3,17.6-22.3c4,0,7.3,0.6,10.3,1.8L752.2,108.7z M740.2,133.4
			c3.3,0,5.1-2.6,5.1-5.6c0-3.3-1.4-6.3-5.1-6.3c-3.5,0-5.2,2.8-5.2,5.9C735,130.5,736.8,133.4,740.2,133.4z"/>
	</g>
	<g>
		<path d="M611.8,206.8c8.1-7,17.4-14.7,17.4-20c0-3.5-2.5-5-5.6-5c-3.4,0-8,1.3-10.4,2.7l-0.4-8.3c5.7-2.1,9.5-2.3,11.8-2.3
			c8.9,0,15.3,3.8,15.3,11.7c0,7.8-8.4,15.6-12.1,18.8l-2.8,2.5h15.7v7.5h-28.8V206.8z"/>
		<path d="M649.1,194.5c0-10.3,2.3-20.6,15.4-20.6c13.2,0,15.4,10.3,15.4,20.6s-2.3,20.6-15.4,20.6
			C651.4,215,649.1,204.8,649.1,194.5z M669.8,194.5c0-6.3-0.4-13.4-5.2-13.4c-4.8,0-5.2,7.1-5.2,13.4c0,6.3,0.4,13.4,5.2,13.4
			C669.4,207.9,669.8,200.8,669.8,194.5z"/>
		<path d="M686.9,194.5c0-10.3,2.3-20.6,15.4-20.6c13.2,0,15.4,10.3,15.4,20.6s-2.3,20.6-15.4,20.6
			C689.2,215,686.9,204.8,686.9,194.5z M707.5,194.5c0-6.3-0.4-13.4-5.2-13.4c-4.8,0-5.2,7.1-5.2,13.4c0,6.3,0.4,13.4,5.2,13.4
			C707.1,207.9,707.5,200.8,707.5,194.5z"/>
		<path d="M727.9,205.4c1.7,1.1,4.5,2.1,8.4,2.1c7.1,0,9.2-4.7,9.3-11.7h-0.1c-1.9,2.7-4.6,4-8.6,4c-7.3,0-11.9-5.4-11.9-12.5
			c0-7.4,6.2-13.5,14.9-13.5c11.3,0,15.3,8.9,15.3,18.9c0,12.2-4.4,22.3-17.6,22.3c-4,0-7.3-0.6-10.3-1.8L727.9,205.4z M740,180.7
			c-3.3,0-5.1,2.6-5.1,5.6c0,3.3,1.4,6.3,5.1,6.3c3.5,0,5.2-2.8,5.2-5.9C745.1,183.6,743.4,180.7,740,180.7z"/>
	</g>
</g>
</svg>
